<svg width="68" height="33" viewBox="0 0 68 33" fill="none" xmlns="http://www.w3.org/2000/svg">
<path d="M5.77958 0.8125L8.5 9.29185L11.2121 0.8125H15.0792V13H12.1328V10.154L12.4174 4.32813L9.47098 13H7.52902L4.57422 4.31975L4.85882 10.154V13H1.92076V0.8125H5.77958ZM27.2751 7.15737C27.2751 8.34598 27.0547 9.39788 26.6138 10.3131C26.173 11.2282 25.5452 11.9342 24.7305 12.4308C23.9213 12.9219 22.9978 13.1674 21.9598 13.1674C20.9219 13.1674 20.0011 12.9302 19.1975 12.4559C18.394 11.976 17.7662 11.2924 17.3142 10.4051C16.8677 9.51786 16.6334 8.49944 16.611 7.34989V6.6635C16.611 5.46931 16.8287 4.41741 17.264 3.50781C17.7048 2.59263 18.3326 1.88672 19.1473 1.39007C19.9676 0.893416 20.8996 0.64509 21.9431 0.64509C22.9754 0.64509 23.8962 0.890625 24.7054 1.3817C25.5145 1.87277 26.1423 2.5731 26.5887 3.4827C27.0407 4.38672 27.2695 5.42467 27.2751 6.59654V7.15737ZM24.2868 6.64676C24.2868 5.43583 24.0831 4.51786 23.6758 3.89286C23.274 3.26228 22.6964 2.94699 21.9431 2.94699C20.4699 2.94699 19.6914 4.0519 19.6077 6.26172L19.5993 7.15737C19.5993 8.35156 19.7974 9.26953 20.1936 9.91127C20.5898 10.553 21.1786 10.8739 21.9598 10.8739C22.702 10.8739 23.274 10.5586 23.6758 9.92801C24.0776 9.29743 24.2812 8.39063 24.2868 7.20759V6.64676ZM28.7902 13V0.8125H33.168C34.736 0.8125 35.9275 1.09989 36.7422 1.67467C37.5625 2.24944 37.9727 3.08371 37.9727 4.17746C37.9727 4.80804 37.8276 5.34654 37.5374 5.79297C37.2472 6.2394 36.8203 6.56864 36.2567 6.78069C36.8929 6.9481 37.3811 7.2606 37.7215 7.71819C38.0619 8.17578 38.2321 8.73382 38.2321 9.3923C38.2321 10.5865 37.8527 11.4849 37.0937 12.0876C36.3404 12.6847 35.2215 12.9888 33.7372 13H28.7902ZM31.7282 7.81864V10.74H33.6535C34.1836 10.74 34.591 10.62 34.8756 10.38C35.1602 10.1345 35.3025 9.79129 35.3025 9.35045C35.3025 8.33482 34.7974 7.82422 33.7874 7.81864H31.7282ZM31.7282 5.89342H33.26C33.9018 5.88784 34.3594 5.77065 34.6328 5.54185C34.9062 5.31306 35.043 4.97545 35.043 4.52902C35.043 4.01563 34.8951 3.64732 34.5993 3.42411C34.3036 3.19531 33.8265 3.08092 33.168 3.08092H31.7282V5.89342ZM42.9866 13H40.0569V0.8125H42.9866V13ZM47.9671 10.74H53.0815V13H45.029V0.8125H47.9671V10.74ZM61.8789 7.83538H57.2584V10.74H62.716V13H54.3203V0.8125H62.7327V3.08092H57.2584V5.65067H61.8789V7.83538ZM65.5285 10.2628C65.9749 10.2628 66.346 10.3968 66.6417 10.6646C66.9375 10.9269 67.0854 11.2645 67.0854 11.6775C67.0854 12.0904 66.9375 12.4308 66.6417 12.6987C66.346 12.9609 65.9749 13.0921 65.5285 13.0921C65.0764 13.0921 64.7026 12.9581 64.4068 12.6903C64.1166 12.4224 63.9715 12.0848 63.9715 11.6775C63.9715 11.2701 64.1166 10.9325 64.4068 10.6646C64.7026 10.3968 65.0764 10.2628 65.5285 10.2628ZM8.84319 30.7232H4.81696L4.11384 33H0.974888L5.44475 20.8125H8.20703L12.7104 33H9.55469L8.84319 30.7232ZM5.52009 28.4548H8.14007L6.82589 24.2277L5.52009 28.4548ZM16.5441 28.865V33H13.606V20.8125H18.4693C19.4012 20.8125 20.2243 20.9855 20.9386 21.3315C21.6585 21.6719 22.2137 22.1602 22.6044 22.7963C23.0006 23.4269 23.1987 24.144 23.1987 24.9475C23.1987 26.1362 22.7718 27.0876 21.918 27.8019C21.0698 28.5106 19.9035 28.865 18.4191 28.865H16.5441ZM16.5441 26.5965H18.4693C19.0385 26.5965 19.471 26.4542 19.7667 26.1696C20.0681 25.885 20.2187 25.4833 20.2187 24.9643C20.2187 24.3951 20.0653 23.9403 19.7584 23.5999C19.4515 23.2595 19.0329 23.0865 18.5028 23.0809H16.5441V26.5965ZM27.7104 28.865V33H24.7723V20.8125H29.6356C30.5675 20.8125 31.3906 20.9855 32.1049 21.3315C32.8248 21.6719 33.38 22.1602 33.7706 22.7963C34.1669 23.4269 34.365 24.144 34.365 24.9475C34.365 26.1362 33.9381 27.0876 33.0843 27.8019C32.236 28.5106 31.0698 28.865 29.5854 28.865H27.7104ZM27.7104 26.5965H29.6356C30.2048 26.5965 30.6373 26.4542 30.933 26.1696C31.2344 25.885 31.385 25.4833 31.385 24.9643C31.385 24.3951 31.2316 23.9403 30.9247 23.5999C30.6177 23.2595 30.1992 23.0865 29.6691 23.0809H27.7104V26.5965Z" fill="black"/>
</svg>
