<svg width="84" height="17" viewBox="0 0 84 17" fill="none" xmlns="http://www.w3.org/2000/svg">
<path d="M2.49051 0.8125L6.47489 10.7567L10.4593 0.8125H12.5435V13H10.9364V8.25391L11.0871 3.13114L7.08594 13H5.85547L1.86272 3.15625L2.02176 8.25391V13H0.41462V0.8125H2.49051ZM14.7282 8.38783C14.7282 7.50056 14.9012 6.70257 15.2472 5.99386C15.5988 5.28516 16.0843 4.73828 16.7037 4.35324C17.3287 3.96819 18.0402 3.77567 18.8382 3.77567C20.0714 3.77567 21.0675 4.20257 21.8265 5.05636C22.591 5.91016 22.9732 7.04576 22.9732 8.46317V8.57199C22.9732 9.45368 22.803 10.2461 22.4626 10.9492C22.1278 11.6468 21.6451 12.1908 21.0145 12.5815C20.3895 12.9721 19.6696 13.1674 18.8549 13.1674C17.6272 13.1674 16.6311 12.7405 15.8666 11.8867C15.1077 11.0329 14.7282 9.9029 14.7282 8.49665V8.38783ZM16.2852 8.57199C16.2852 9.57645 16.5167 10.3828 16.9799 10.9911C17.4487 11.5993 18.0737 11.9035 18.8549 11.9035C19.6417 11.9035 20.2667 11.5965 20.7299 10.9827C21.1931 10.3633 21.4247 9.49833 21.4247 8.38783C21.4247 7.39453 21.1875 6.59096 20.7132 5.97712C20.2444 5.3577 19.6194 5.04799 18.8382 5.04799C18.0737 5.04799 17.457 5.35212 16.9883 5.96038C16.5195 6.56864 16.2852 7.43917 16.2852 8.57199ZM32.5826 8.57199C32.5826 9.95592 32.2645 11.0692 31.6283 11.9118C30.9922 12.7489 30.1384 13.1674 29.067 13.1674C27.923 13.1674 27.0385 12.7628 26.4135 11.9537L26.3382 13H24.9152V0.142858H26.4637V4.93917C27.0887 4.1635 27.9509 3.77567 29.0502 3.77567C30.1496 3.77567 31.0117 4.19141 31.6367 5.02288C32.2673 5.85435 32.5826 6.99275 32.5826 8.43806V8.57199ZM31.034 8.39621C31.034 7.34152 30.8304 6.52679 30.423 5.95201C30.0156 5.37723 29.4297 5.08984 28.6652 5.08984C27.644 5.08984 26.9102 5.56417 26.4637 6.51284V10.4302C26.9381 11.3789 27.6775 11.8532 28.6819 11.8532C29.4241 11.8532 30.0017 11.5658 30.4146 10.9911C30.8276 10.4163 31.034 9.55134 31.034 8.39621ZM36.2238 13H34.6752V3.94308H36.2238V13ZM34.5497 1.54074C34.5497 1.28962 34.625 1.07757 34.7757 0.904576C34.9319 0.731585 35.1607 0.64509 35.4621 0.64509C35.7634 0.64509 35.9922 0.731585 36.1484 0.904576C36.3047 1.07757 36.3828 1.28962 36.3828 1.54074C36.3828 1.79185 36.3047 2.00112 36.1484 2.16853C35.9922 2.33594 35.7634 2.41964 35.4621 2.41964C35.1607 2.41964 34.9319 2.33594 34.7757 2.16853C34.625 2.00112 34.5497 1.79185 34.5497 1.54074ZM40.3923 13H38.8437V0.142858H40.3923V13ZM46.6367 13.1674C45.409 13.1674 44.4102 12.7656 43.6401 11.9621C42.87 11.1529 42.4849 10.0731 42.4849 8.72266V8.43806C42.4849 7.53962 42.6551 6.73884 42.9955 6.03571C43.3415 5.32701 43.8214 4.77455 44.4353 4.37835C45.0547 3.97656 45.7243 3.77567 46.4442 3.77567C47.6217 3.77567 48.5368 4.1635 49.1897 4.93917C49.8426 5.71484 50.1691 6.82534 50.1691 8.27065V8.91518H44.0335C44.0558 9.80804 44.3153 10.5307 44.8119 11.0831C45.3142 11.63 45.9503 11.9035 46.7204 11.9035C47.2673 11.9035 47.7305 11.7919 48.1099 11.5686C48.4894 11.3454 48.8214 11.0497 49.106 10.6814L50.0519 11.418C49.293 12.5843 48.1546 13.1674 46.6367 13.1674ZM46.4442 5.04799C45.8192 5.04799 45.2946 5.27679 44.8705 5.73438C44.4464 6.18638 44.1842 6.82254 44.0837 7.64286H48.6205V7.52567C48.5759 6.73884 48.3638 6.13058 47.9844 5.70089C47.6049 5.26563 47.0915 5.04799 46.4442 5.04799ZM52.0022 12.1881C52.0022 11.9202 52.0804 11.697 52.2366 11.5184C52.3984 11.3398 52.6384 11.2506 52.9565 11.2506C53.2746 11.2506 53.5145 11.3398 53.6763 11.5184C53.8437 11.697 53.9275 11.9202 53.9275 12.1881C53.9275 12.4448 53.8437 12.6596 53.6763 12.8326C53.5145 13.0056 53.2746 13.0921 52.9565 13.0921C52.6384 13.0921 52.3984 13.0056 52.2366 12.8326C52.0804 12.6596 52.0022 12.4448 52.0022 12.1881ZM62.0804 13C61.9911 12.8214 61.9185 12.5033 61.8627 12.0458C61.1429 12.7935 60.2835 13.1674 59.2846 13.1674C58.3917 13.1674 57.6579 12.9163 57.0831 12.4141C56.5139 11.9063 56.2294 11.2645 56.2294 10.4888C56.2294 9.54576 56.5865 8.81473 57.3008 8.29576C58.0206 7.77121 59.0307 7.50893 60.3309 7.50893H61.8376V6.79743C61.8376 6.25614 61.6758 5.82645 61.3521 5.50837C61.0285 5.18471 60.5513 5.02288 59.9208 5.02288C59.3683 5.02288 58.9051 5.16239 58.5312 5.44141C58.1574 5.72042 57.9704 6.05804 57.9704 6.45424H56.4135C56.4135 6.00223 56.5725 5.56696 56.8906 5.14844C57.2143 4.72433 57.6496 4.38951 58.1964 4.14397C58.7489 3.89844 59.3544 3.77567 60.0128 3.77567C61.0564 3.77567 61.8739 4.03795 62.4654 4.5625C63.0569 5.08147 63.3638 5.79855 63.3862 6.71373V10.8823C63.3862 11.7137 63.4922 12.375 63.7042 12.8661V13H62.0804ZM59.5106 11.8198C59.9961 11.8198 60.4565 11.6942 60.8917 11.4431C61.327 11.192 61.6423 10.8655 61.8376 10.4637V8.60547H60.6239C58.7266 8.60547 57.7779 9.16071 57.7779 10.2712C57.7779 10.7567 57.9397 11.1362 58.2634 11.4096C58.5871 11.683 59.0028 11.8198 59.5106 11.8198ZM73.4643 8.57199C73.4643 9.95033 73.149 11.0608 72.5184 11.9035C71.8878 12.7461 71.034 13.1674 69.957 13.1674C68.8577 13.1674 67.9927 12.8186 67.3622 12.1211V16.4821H65.8136V3.94308H67.2282L67.3036 4.94754C67.9341 4.16629 68.8103 3.77567 69.9319 3.77567C71.0201 3.77567 71.8795 4.18583 72.51 5.00614C73.1462 5.82645 73.4643 6.96763 73.4643 8.42969V8.57199ZM71.9157 8.39621C71.9157 7.375 71.6981 6.56864 71.2628 5.97712C70.8276 5.3856 70.2305 5.08984 69.4715 5.08984C68.534 5.08984 67.8309 5.50558 67.3622 6.33705V10.6646C67.8253 11.4905 68.534 11.9035 69.4883 11.9035C70.2305 11.9035 70.8192 11.6105 71.2545 11.0246C71.6953 10.433 71.9157 9.55692 71.9157 8.39621ZM83.0904 8.57199C83.0904 9.95033 82.7751 11.0608 82.1445 11.9035C81.5139 12.7461 80.6602 13.1674 79.5831 13.1674C78.4838 13.1674 77.6189 12.8186 76.9883 12.1211V16.4821H75.4397V3.94308H76.8543L76.9297 4.94754C77.5603 4.16629 78.4364 3.77567 79.558 3.77567C80.6462 3.77567 81.5056 4.18583 82.1362 5.00614C82.7723 5.82645 83.0904 6.96763 83.0904 8.42969V8.57199ZM81.5418 8.39621C81.5418 7.375 81.3242 6.56864 80.8889 5.97712C80.4537 5.3856 79.8566 5.08984 79.0977 5.08984C78.1602 5.08984 77.457 5.50558 76.9883 6.33705V10.6646C77.4514 11.4905 78.1602 11.9035 79.1144 11.9035C79.8566 11.9035 80.4453 11.6105 80.8806 11.0246C81.3214 10.433 81.5418 9.55692 81.5418 8.39621Z" fill="black"/>
</svg>
